<?xml version="1.0" encoding="utf-8"?>
<!-- Generator: Adobe Illustrator 28.1.0, SVG Export Plug-In . SVG Version: 6.00 Build 0)  -->
<svg version="1.1" id="Calque_1" xmlns="http://www.w3.org/2000/svg" xmlns:xlink="http://www.w3.org/1999/xlink" x="0px" y="0px"
	 viewBox="0 0 473.8 233" style="enable-background:new 0 0 473.8 233;" xml:space="preserve">
<style type="text/css">
	.st0{fill:#306EF3;}
	.st1{fill:#FFFFFF;}
	.st2{fill-rule:evenodd;clip-rule:evenodd;fill:#FFFFFF;}
	.st3{fill-rule:evenodd;clip-rule:evenodd;fill:#E20025;}
</style>
<path class="st0" d="M258.5,159.7c-8.3,11.2-16.8,17.1-25.2,17.2c-0.1,0-0.3,0-0.4,0c-10.4,0-20-8.7-26.8-17.2h-16.2
	c7.1,11.3,22.3,30.4,42.9,30.4c0.2,0,0.5,0,0.7,0c15.5-0.3,29.8-11.6,42.8-33.6c-5,2.1-10.7,3.2-17,3.2
	C259,159.7,258.7,159.7,258.5,159.7z"/>
<path class="st0" d="M159.7,92.1h14.2c-22.3-47.5-45-54.2-60.3-51C96.1,44.7,83.8,60.3,83,73.6h12.9c1.1-8.2,8.8-17.6,20.4-20
	C130.4,50.7,145.7,64.3,159.7,92.1z"/>
<g>
	<g>
		<path class="st1" d="M147.9,103.4c-4.1-2.2-9-3.3-14.7-3.3c-8.8,0-15.5,2.4-20.2,7.1s-7.1,11.1-7.1,19.2c0,8.2,2.7,14.6,8,19.2
			c5.3,4.6,12.6,6.9,21.7,6.9c3.6,0,7.3-0.3,10.9-0.9c3.7-0.6,6.6-1.4,9-2.4v-9.9c-2.5,1-5.3,1.7-8.6,2.3c-3.3,0.5-6.5,0.8-9.6,0.8
			c-11.8,0-18.2-3.7-19.1-11h42v-5.9c0-4.9-1-9.2-3.1-13C155,108.6,152,105.6,147.9,103.4z M118.2,122.5c0.1-3.8,1.5-6.7,4.1-8.9
			c2.6-2.2,6.2-3.3,10.7-3.3c4.6,0,8.2,1.1,10.8,3.2s4,5.1,4.2,9C148,122.5,118.2,122.5,118.2,122.5z"/>
		<path class="st1" d="M274.4,103.4c-4.3-2.2-9.4-3.2-15.1-3.2c-5.7,0-10.8,1.1-15.2,3.2c-4.4,2.2-7.7,5.2-10.1,9.1
			c-2.4,3.9-3.5,8.5-3.5,13.8c0,5.4,1.2,10.1,3.6,14c2.4,3.9,5.8,6.9,10.1,9s9.4,3.1,15.1,3.1c5.7,0,10.8-1,15.1-3.1
			c4.3-2.1,7.7-5.1,10.1-9s3.6-8.6,3.6-14c0-5.3-1.2-9.9-3.6-13.8S278.7,105.5,274.4,103.4z M270.5,137.8c-2.8,3-6.6,4.5-11.3,4.5
			c-4.7,0-8.5-1.5-11.3-4.5s-4.2-6.8-4.2-11.5c0-5,1.4-8.9,4.2-11.7c2.8-2.8,6.5-4.3,11.3-4.3c4.8,0,8.6,1.4,11.3,4.3
			c2.8,2.8,4.2,6.8,4.2,11.7C274.7,131,273.3,134.8,270.5,137.8z"/>
		<path class="st1" d="M343.7,103.4c-3.9-2.2-8.4-3.2-13.4-3.2c-4,0-7.6,0.6-10.8,1.8c-3.1,1.2-6.1,3.1-8.7,5.6v-5.9h-12.5v71.7
			h12.9v-27.3c2.3,2.1,5.1,3.7,8.5,4.8c3.3,1.1,6.9,1.6,10.6,1.6c5,0,9.5-1.1,13.4-3.3s7-5.3,9.2-9.3s3.3-8.5,3.3-13.6
			c0-5.2-1.1-9.8-3.3-13.7C350.7,108.6,347.6,105.5,343.7,103.4z M338.6,137.8c-3,3-6.8,4.5-11.5,4.5c-3.7,0-7-1-9.9-3
			s-4.9-4.7-6-8.1v-9.9c1.2-3.3,3.2-6,6.1-8s6.2-3,9.8-3c4.6,0,8.5,1.5,11.5,4.4s4.5,6.8,4.5,11.5
			C343.2,130.9,341.6,134.8,338.6,137.8z"/>
		<path class="st1" d="M404.4,130.8c-1-1.9-2.7-3.6-5.1-4.9c-2.4-1.4-5.7-2.6-9.9-3.8c-4-1-6.7-1.8-8.2-2.3s-2.7-1.1-3.6-1.8
			c-0.9-0.7-1.4-1.7-1.4-2.9c0-1.8,0.9-3.1,2.6-3.7s4.2-1,7.6-1c3.1,0,6.1,0.4,9,1.1c2.9,0.8,5.4,1.7,7.5,3v-10.6
			c-1.9-1.2-4.6-2.1-7.9-2.7c-3.4-0.6-6.8-1-10.2-1c-6.6,0-11.9,1.2-15.8,3.7s-5.8,6.2-5.8,11.1c0,3,0.6,5.5,1.8,7.3
			c1.2,1.9,3,3.4,5.3,4.7c2.4,1.2,5.6,2.4,9.7,3.6c3.6,1,6.3,1.8,8.1,2.4c1.7,0.7,3,1.4,3.8,2.2s1.2,1.8,1.2,3
			c0,1.6-0.8,2.7-2.3,3.2c-1.5,0.6-3.9,0.9-7.2,0.9c-3.3,0-6.8-0.5-10.5-1.5s-6.9-2.3-9.5-3.9v11c2.3,1.4,5.4,2.6,9.4,3.4
			c4,0.8,7.8,1.2,11.4,1.2c7,0,12.4-1.3,16.2-3.9c3.7-2.6,5.6-6.1,5.6-10.5C405.9,135.1,405.4,132.7,404.4,130.8z"/>
		<path class="st1" d="M82.7,106.5c-4.7-4.2-11-6.4-19.1-6.4c-5,0-9.5,1.1-13.4,3.3c-3.9,2.2-7,5.3-9.2,9.3s-3.3,8.5-3.3,13.6
			c0,5.2,1.1,9.8,3.3,13.7s5.3,7,9.2,9.1c3.9,2.2,8.4,3.2,13.4,3.2c4.2,0,7.8-0.6,10.8-1.7c3-1.1,5.9-3,8.7-5.6v5.7h12.5V80.5H82.9
			L82.7,106.5z M82.7,131.3c-1.2,3.4-3.2,6-6.1,8s-6.2,3-9.8,3c-4.7,0-8.5-1.5-11.5-4.4s-4.5-6.8-4.5-11.5s1.5-8.6,4.5-11.6
			s6.8-4.5,11.5-4.5c3.7,0,7,1,9.9,3s4.9,4.7,6,8.1V131.3z"/>
		<path class="st1" d="M223.4,100.1h-14.3l-15.6,37.2l-16.3-37.2h-14.4l22.5,51.3c0,0,0.3,0.6,0.5,1h15.7L223.4,100.1z"/>
	</g>
</g>
<path class="st2" d="M352.7,183.1L344,191l-8.8-7.9l2.6-2.4c0,0,5.4,5.2,6.1,5.9c0.8-0.7,6.1-5.9,6.1-5.9L352.7,183.1L352.7,183.1
	L352.7,183.1z"/>
<path class="st3" d="M413.6,181h4.9c1.8,0,2.9-0.9,3.3-1.3c0.4-0.4,1.4-1.5,1.4-2.8c0,0,0-4.1,0-4.1c0-0.8,0.6-1.4,1.4-1.4h5.3
	c0.8,0,1.4,0.6,1.4,1.4v5.3c0,0.8-0.6,1.4-1.4,1.4h-4.1c-1.3,0-2.4,1-2.8,1.4c-0.4,0.4-1.3,1.5-1.3,3.3v4.9h-8.1L413.6,181"/>
<path class="st3" d="M441.5,185.3c0-1.3-0.5-2.4-1.4-3.3c-0.8-0.8-2-1.4-3.3-1.4c-2.7,0-4.8,2.2-4.8,4.7c0,0.5,0.2,1.4,0.2,1.7
	c0,2-1.6,3.7-3.7,3.7h-3.9c-0.7,0-1.4,0.6-1.4,1.4v5.3c0,0.8,0.6,1.4,1.4,1.4h5.3c0.8,0,1.4-0.6,1.4-1.4v-3.9c0-2,1.6-3.7,3.7-3.7
	c0.4,0,1.3,0.2,1.7,0.2C439.3,190,441.5,187.9,441.5,185.3"/>
<path class="st2" d="M382.2,181.5v8.6c0,0,3.1,0.8,8.1,0.8c4.9,0,8.1-0.8,8.1-0.8v-2.9c0,0-3.4,0.7-8.1,0.7c-2.3,0-3.8-0.3-4.6-0.3
	c0-0.7,0-2.7,0-3.4c0.9-0.1,2.4-0.3,4.6-0.3c4.6,0,8.1,0.7,8.1,0.7v-2.9c0,0-3.1-0.8-8.1-0.8C385.3,180.7,382.2,181.5,382.2,181.5"
	/>
<polygon class="st2" points="402.1,180.9 405.8,180.9 405.8,190.8 402.1,190.8 402.1,180.9 "/>
<polygon class="st2" points="355.1,180.9 358.6,180.9 358.6,190.8 355.1,190.8 355.1,180.9 "/>
<path class="st2" d="M375,190.8c0,0-2.5-2.1-6.3-4c-1-0.5-1.9-0.9-2.7-1.2v5.2h-3.4V181c0,0,2.9,0.6,6.1,2.3
	c3.7,1.9,6.3,3.8,6.3,3.8v-6.1h3.4v9.8L375,190.8L375,190.8L375,190.8z"/>
<polygon class="st2" points="384.8,198.5 384.8,194.4 387.3,194.4 387.3,194.9 385.8,194.9 385.8,196.2 387.1,196.2 387.1,196.7 
	385.8,196.7 385.8,198 387.3,198 387.3,198.5 384.8,198.5 "/>
<path class="st2" d="M391.3,198.5l-2-2.7c-0.2-0.2-0.3-0.5-0.3-0.5h0c0,0,0,0.2,0,0.5v2.7h-0.8v-4.2h0.9l1.9,2.6
	c0.2,0.3,0.3,0.4,0.3,0.4h0c0,0,0-0.2,0-0.5v-2.6h0.8v4.2H391.3L391.3,198.5L391.3,198.5z"/>
<polygon class="st2" points="393.1,198.5 393.1,194.4 395.7,194.4 395.7,194.9 394.1,194.9 394.1,196.2 395.5,196.2 395.5,196.7 
	394.1,196.7 394.1,198 395.7,198 395.7,198.5 393.1,198.5 "/>
<path class="st2" d="M399.1,195.6c0,0.6-0.4,0.9-1.1,0.9c-0.1,0-0.3,0-0.4,0v-1.6c0.1,0,0.3-0.1,0.5-0.1
	C398.8,194.7,399.1,195,399.1,195.6 M400.2,198.5l-1.6-1.9v0c0.8,0,1.4-0.5,1.4-1.1c0-0.8-0.6-1.3-1.9-1.3c-0.6,0-1.1,0.1-1.4,0.2v4
	h0.9v-1.9h0l1.5,1.9L400.2,198.5L400.2,198.5L400.2,198.5z"/>
<path class="st2" d="M403,198.6c-1.4,0-2.3-0.8-2.3-2.2c0-1.3,1-2.1,2.3-2.1c0.6,0,1,0.1,1.3,0.2l-0.3,0.5c-0.2-0.1-0.5-0.2-0.9-0.2
	c-0.9,0-1.5,0.5-1.5,1.6c0,1.1,0.5,1.6,1.3,1.6c0.3,0,0.4,0,0.5-0.1v-1.4h-0.8v-0.5h1.7v2.2C404.1,198.6,403.7,198.6,403,198.6"/>
<polygon class="st2" points="405.4,194.4 406.4,194.4 406.4,198.5 405.4,198.5 405.4,194.4 "/>
<polygon class="st2" points="407.5,198.5 407.5,194.4 410,194.4 410,194.9 408.5,194.9 408.5,196.2 409.8,196.2 409.8,196.7 
	408.5,196.7 408.5,198 410,198 410,198.5 407.5,198.5 "/>
<path class="st2" d="M411.9,198.6c-0.6,0-1-0.1-1.3-0.2l0.2-0.6c0.2,0.1,0.5,0.2,0.9,0.2c0.5,0,0.8-0.3,0.8-0.7
	c0-0.3-0.2-0.5-0.8-0.7c-0.9-0.3-1.1-0.7-1.1-1.2c0-0.7,0.6-1.2,1.6-1.2c0.5,0,0.9,0.1,1.2,0.2l-0.2,0.5c-0.2-0.1-0.5-0.2-0.8-0.2
	c-0.5,0-0.8,0.2-0.8,0.6c0,0.4,0.3,0.5,0.8,0.7c1,0.4,1.2,0.8,1.2,1.2C413.6,198.1,412.9,198.6,411.9,198.6"/>
</svg>
